<svg id="Livello_2" data-name="Livello 2" xmlns="http://www.w3.org/2000/svg" viewBox="0 0 481 263">
  <title>Senza titolo-1</title>
  <path d="M731,281a6,6,0,0,1,5-5.91v-9.18a6,6,0,0,1,0-11.82V243.5H255v10a6,6,0,0,1,0,12v9a6,6,0,0,1,0,12v9a6,6,0,0,1,0,12v9a6,6,0,0,1,0,12v9a6,6,0,0,1,0,12v9a6,6,0,0,1,0,12v9a6,6,0,0,1,0,12v9a6,6,0,0,1,0,12v9a6,6,0,0,1,0,12v9a6,6,0,0,1,0,12v9a6,6,0,0,1,0,12v9a6,6,0,0,1,0,12v10H736v-9.59a6,6,0,0,1,0-11.82v-9.18a6,6,0,0,1,0-11.82v-9.18a6,6,0,0,1,0-11.82v-9.18a6,6,0,0,1,0-11.82v-9.18a6,6,0,0,1,0-11.82v-9.18a6,6,0,0,1,0-11.82v-9.18a6,6,0,0,1,0-11.82v-9.18a6,6,0,0,1,0-11.82v-9.18a6,6,0,0,1,0-11.82v-9.18a6,6,0,0,1,0-11.82v-9.18A6,6,0,0,1,731,281Z" transform="translate(-255 -243.5)" style="fill: #ffe000"/>
</svg>
